<svg width="24" height="24" viewBox="0 0 24 24" fill="none" xmlns="http://www.w3.org/2000/svg">
<path d="M15.6913 9.12525C15.6927 9.52234 15.5764 9.91095 15.3571 10.2419C15.1377 10.5729 14.8251 10.8314 14.4588 10.9848C14.0925 11.1381 13.6889 11.1794 13.2992 11.1034C12.9094 11.0273 12.551 10.8375 12.2692 10.5577C11.9873 10.278 11.7948 9.92096 11.7158 9.53178C11.6369 9.14261 11.6752 8.73878 11.8258 8.37134C11.9763 8.00391 12.2325 7.68938 12.5618 7.46754C12.8912 7.24569 13.2789 7.12649 13.676 7.125H13.691C14.2215 7.125 14.7303 7.33574 15.1054 7.71086C15.4805 8.08598 15.6913 8.59475 15.6913 9.12525Z" fill="#FFC131"/>
<path d="M10.3206 16.8638C11.4253 16.8638 12.3208 15.9682 12.3208 14.8635C12.3208 13.7588 11.4253 12.8633 10.3206 12.8633C9.21585 12.8633 8.32031 13.7588 8.32031 14.8635C8.32031 15.9682 9.21585 16.8638 10.3206 16.8638Z" fill="#24C8DB"/>
<path d="M17.8449 15.5482C17.0386 16.066 16.1436 16.4306 15.2049 16.6237C15.4752 15.8468 15.5652 15.0187 15.4682 14.2019C16.2643 13.9226 16.9835 13.4598 17.5677 12.851C18.1518 12.2422 18.5846 11.5045 18.8309 10.6976C19.0772 9.89061 19.1301 9.03702 18.9855 8.20579C18.8408 7.37457 18.5026 6.58905 17.9982 5.91274C17.4937 5.23642 16.8372 4.68829 16.0818 4.31265C15.3263 3.93702 14.493 3.74441 13.6493 3.75042C12.8056 3.75643 11.9752 3.96087 11.2251 4.34723C10.4751 4.73358 9.82644 5.291 9.33169 5.97443C8.31231 6.09136 7.32035 6.38126 6.39844 6.83168C6.76585 5.65935 7.41021 4.59275 8.277 3.72211C9.1438 2.85146 10.2075 2.20239 11.3782 1.82979C12.5489 1.45719 13.7921 1.37203 15.0027 1.5815C16.2133 1.79098 17.3556 2.28893 18.333 3.03324C19.3104 3.77755 20.0942 4.74632 20.6181 5.85759C21.1419 6.96887 21.3904 8.18997 21.3425 9.41759C21.2946 10.6452 20.9518 11.8433 20.343 12.9104C19.7342 13.9775 18.8774 14.8823 17.8449 15.5482ZM6.48844 8.23043L8.36344 8.45543C8.40969 8.09261 8.4903 7.73501 8.60419 7.38743C7.86092 7.56159 7.14781 7.84572 6.48844 8.23043Z" fill="#FFC131"/>
<path d="M6.15754 8.44115C6.96837 7.91465 7.87192 7.54712 8.82004 7.35815C8.53355 8.13381 8.43086 8.96535 8.52004 9.7874C7.72737 10.0714 7.01245 10.5375 6.43287 11.1483C5.85329 11.7591 5.42524 12.4975 5.18319 13.304C4.94113 14.1104 4.89185 14.9625 5.03929 15.7915C5.18674 16.6205 5.52679 17.4033 6.03208 18.0768C6.53737 18.7504 7.19376 19.2959 7.9484 19.6694C8.70305 20.0429 9.53485 20.2339 10.3768 20.2272C11.2188 20.2204 12.0475 20.016 12.796 19.6305C13.5446 19.2449 14.1921 18.689 14.6865 18.0074C15.7047 17.8935 16.6963 17.6088 17.6198 17.1652C17.2513 18.3374 16.606 19.4037 15.7386 20.274C14.8711 21.1443 13.8069 21.7931 12.6358 22.1654C11.4648 22.5377 10.2213 22.6226 9.01054 22.4131C7.79974 22.2035 6.65717 21.7056 5.67937 20.9614C4.70156 20.2172 3.91726 19.2486 3.39273 18.1373C2.86819 17.0261 2.61884 15.805 2.66573 14.5771C2.71263 13.3491 3.0544 12.1506 3.66216 11.0826C4.26993 10.0146 5.12583 9.10862 6.15754 8.44115Z" fill="#24C8DB"/>
</svg>
