<svg width="191" height="66" viewBox="0 0 191 66" fill="none" xmlns="http://www.w3.org/2000/svg">
<path d="M167.191 51.0861C104.553 55.6747 50.0536 38.7529 0.301505 1.84982C5.68106 -1.00707 8.57745 1.6966 10.9296 3.34372C29.2679 15.2656 49.765 22.6196 69.9965 30.1064C99.1383 40.943 129.267 43.3134 160.154 41.3177C161.489 41.3143 162.753 40.8483 165.683 40.0474C152.729 32.7405 137.311 32.9779 127.074 23.4821C127.534 22.7536 127.858 21.7609 128.318 21.0323C137.553 23.3894 146.988 25.8121 156.288 27.9706C165.587 30.1292 174.751 32.0236 183.985 34.3807C190.744 36.1489 192.519 40.244 188.163 45.4126C182.621 52.1712 176.068 57.9404 169.852 64.0395C169.191 64.7024 168.264 65.4982 167.33 65.6328C164.861 65.7052 162.587 65.182 159.981 64.9902C160.228 62.8736 159.937 60.3617 160.721 58.6405C161.901 56.3893 163.956 54.8633 167.191 51.0861Z" fill="black"/>
</svg>
