<svg width="285" height="21" viewBox="0 0 285 21" fill="none" xmlns="http://www.w3.org/2000/svg">
<path fill-rule="evenodd" clip-rule="evenodd" d="M194.755 3.04685C194.811 2.84476 194.84 2.61919 194.835 2.38175C194.819 1.52987 194.374 0.847794 193.843 0.858288C181.073 1.11056 168.301 1.34543 155.529 1.58031C129.983 2.05011 104.435 2.51995 78.8921 3.1291C76.861 3.17753 74.8074 3.19507 72.7405 3.21272C65.4287 3.27516 57.9498 3.33903 50.7097 4.77722C50.1564 4.88712 49.7231 4.98971 49.4075 5.08712C49.2514 5.13531 49.1055 5.18784 48.9805 5.24762C48.9182 5.27744 48.8458 5.31625 48.7728 5.36731C48.7125 5.40944 48.589 5.50196 48.4687 5.67255C48.363 5.82234 48.0708 6.31378 48.1476 7.09732C48.2169 7.80438 48.537 8.14894 48.622 8.2347C48.8196 8.43388 49.0369 8.50358 49.1163 8.52904L49.1184 8.52972C49.3479 8.60332 49.6633 8.65175 50.0124 8.68856C51.4365 8.83871 54.228 8.86781 57.5232 8.83899C61.7309 8.8022 66.8412 8.66935 71.1314 8.55782C73.5764 8.49425 75.755 8.43762 77.3484 8.40963C97.5254 8.05527 117.702 7.67388 137.879 7.27787C119.824 8.35208 101.773 9.58607 83.7333 11.07C62.8692 11.6395 43.1822 12.1755 27.1334 12.6125C16.7039 12.8965 7.81086 13.1386 1.12978 13.3209C0.598661 13.3354 0.18377 14.0377 0.20309 14.8895C0.222411 15.7413 0.668627 16.4201 1.19974 16.4056C7.88066 16.2234 16.7735 15.9812 27.2029 15.6972C30.7243 15.6014 34.4209 15.5007 38.2666 15.396C37.5305 15.4764 36.7945 15.5573 36.0585 15.6388C29.7837 16.3336 26.5808 16.7235 25.4525 16.9067C25.3102 16.9298 25.1923 16.951 25.1018 16.9704C25.0571 16.9799 25.011 16.9907 24.9681 17.0031L24.9653 17.0039C24.9404 17.011 24.8485 17.0372 24.7525 17.0955C24.723 17.1135 24.6628 17.1523 24.5934 17.2197C24.5502 17.2618 24.3658 17.441 24.2443 17.8193C24.193 18.0101 24.1399 18.4536 24.1457 18.6993C24.1748 18.936 24.2843 19.3379 24.3556 19.5002C24.5119 19.8127 24.6972 19.9392 24.7423 19.9701C24.8598 20.0502 24.9629 20.0756 24.986 20.0812L24.9881 20.0818C25.0277 20.0916 25.0622 20.0967 25.0844 20.0995C25.1655 20.1097 25.2649 20.1112 25.3535 20.1108C25.7314 20.1094 26.4977 20.0669 27.5022 19.9993C30.2858 19.8119 35.0699 19.4191 39.1753 19.0821C41.0314 18.9297 42.7488 18.7887 44.0798 18.6832C82.4514 15.6425 120.879 13.601 159.319 12.0859C183.223 11.4275 204.657 10.8324 219.524 10.4097C240.267 9.82002 251.308 9.48552 256.084 9.31874C257.278 9.27706 258.083 9.24576 258.551 9.22349C258.78 9.21259 258.943 9.20326 259.029 9.19501C259.049 9.19317 259.082 9.18978 259.116 9.18369L259.117 9.18356C259.125 9.18223 259.185 9.17214 259.254 9.14391C259.314 9.11627 259.535 8.9473 259.679 8.76348C259.953 7.90243 259.654 6.53343 259.389 6.24723C259.306 6.19363 259.184 6.13824 259.146 6.12639C259.125 6.12073 259.09 6.11321 259.075 6.11067C259.048 6.10621 259.025 6.10413 259.014 6.10316C258.988 6.101 258.961 6.09984 258.938 6.09909C258.602 6.08801 257.127 6.10928 254.98 6.1497C246.344 6.31234 226.403 6.79603 222.668 6.90084C205.464 7.38374 188.256 7.92004 171.049 8.55213C180.393 8.07986 189.737 7.63558 199.082 7.20682C222.652 6.12531 235.167 5.64959 258.174 4.9577C263.564 4.79558 268.956 4.66433 274.349 4.53303C275.424 4.50686 276.499 4.48069 277.574 4.45426L283.118 4.34475C283.346 4.34024 283.467 4.33773 283.492 4.33696L283.503 4.33656C283.504 4.33654 283.513 4.33618 283.524 4.33533C283.533 4.33459 283.568 4.33028 283.595 4.32566C284.273 3.64463 284.058 1.60548 283.53 1.25847C283.505 1.25533 283.472 1.25271 283.464 1.25233L283.45 1.25196L283.44 1.25188L283.431 1.25192L283.393 1.25243L283.232 1.25512C282.942 1.26014 282.364 1.27072 281.671 1.28386C280.286 1.31011 278.437 1.34663 277.511 1.36939L275.414 1.41081C253.399 1.8457 231.385 2.29666 209.371 2.74762C204.499 2.84742 199.627 2.94722 194.755 3.04685ZM25.3478 20.0389C25.3369 20.0426 25.3344 20.0427 25.3439 20.04C25.3446 20.0398 25.3459 20.0394 25.3478 20.0389ZM49.4314 5.4937C49.4318 5.49346 49.4385 5.49577 49.45 5.50136C49.4367 5.49674 49.431 5.49394 49.4314 5.4937Z" fill="#FD6263"/>
</svg>
