<svg width="290" height="20" viewBox="0 0 290 20" fill="none" xmlns="http://www.w3.org/2000/svg">
<path fill-rule="evenodd" clip-rule="evenodd" d="M198.839 2.66686C198.896 2.46474 198.926 2.23916 198.921 2.00172C198.905 1.14984 198.451 0.467939 197.909 0.478653C184.871 0.736211 171.832 0.976376 158.792 1.21655C132.71 1.69694 106.626 2.17736 80.5468 2.79709C78.4731 2.84637 76.3765 2.86476 74.2662 2.88326C66.801 2.94873 59.1654 3.0157 51.7729 4.4569C51.2079 4.56703 50.7655 4.6698 50.4433 4.76734C50.2838 4.8156 50.1348 4.86819 50.0073 4.92802C49.9436 4.95787 49.8697 4.99671 49.7951 5.0478C49.7335 5.08996 49.6074 5.18253 49.4845 5.35317C49.3765 5.503 49.078 5.99457 49.1561 6.77809C49.2266 7.48512 49.5532 7.82955 49.64 7.91527C49.8416 8.11437 50.0635 8.18398 50.1445 8.20942L50.1467 8.21009C50.3809 8.2836 50.7029 8.33189 51.0593 8.36856C52.5133 8.51813 55.3633 8.54607 58.7275 8.51589C63.0234 8.47735 68.241 8.34238 72.6211 8.22907C75.1175 8.16449 77.3418 8.10695 78.9686 8.07831C99.5688 7.71558 120.169 7.32584 140.768 6.92147C122.334 8.00317 103.905 9.24464 85.4863 10.7361C64.1844 11.3142 44.0845 11.8584 27.699 12.302C17.0507 12.5903 7.9711 12.8362 1.14986 13.0212C0.607599 13.0359 0.183718 13.7384 0.203091 14.5902C0.222464 15.442 0.677754 16.1206 1.22001 16.1059C8.04108 15.9209 17.1205 15.6751 27.7687 15.3867C31.364 15.2894 35.138 15.1872 39.0644 15.0809C38.3129 15.1616 37.5614 15.2429 36.81 15.3247C30.4033 16.0221 27.1331 16.4132 25.9811 16.597C25.8357 16.6201 25.7154 16.6413 25.6229 16.6608C25.5773 16.6703 25.5303 16.6812 25.4865 16.6935L25.4836 16.6944C25.4581 16.7015 25.3644 16.7277 25.2664 16.7861C25.2362 16.8041 25.1747 16.8429 25.1039 16.9103C25.0597 16.9524 24.8714 17.1317 24.7471 17.51C24.6947 17.7009 24.6403 18.1444 24.6462 18.3901C24.6758 18.6268 24.7874 19.0286 24.8601 19.1909C25.0195 19.5033 25.2086 19.6298 25.2547 19.6606C25.3747 19.7407 25.4799 19.766 25.5035 19.7717L25.5057 19.7722C25.5461 19.7821 25.5812 19.7871 25.604 19.7899C25.6867 19.8001 25.7882 19.8015 25.8787 19.8011C26.2645 19.7995 27.0469 19.7567 28.0725 19.6887C30.9145 19.5002 35.7991 19.1054 39.9907 18.7666C41.8858 18.6135 43.6392 18.4718 44.9981 18.3657C84.1756 15.3091 123.41 13.2517 162.657 11.7207C187.062 11.0524 208.945 10.4483 224.125 10.0195C245.302 9.42123 256.575 9.08215 261.452 8.91339C262.67 8.87122 263.492 8.83958 263.97 8.81712C264.204 8.80613 264.37 8.79673 264.458 8.78845C264.478 8.7866 264.512 8.78319 264.547 8.77708L264.548 8.77696C264.556 8.77562 264.617 8.76551 264.688 8.73725C264.749 8.70958 264.975 8.54052 265.122 8.35664C265.402 7.49547 265.097 6.12658 264.827 5.84049C264.743 5.78692 264.618 5.73158 264.579 5.71975C264.557 5.7141 264.522 5.7066 264.507 5.70406C264.479 5.69961 264.456 5.69754 264.444 5.69658C264.417 5.69443 264.39 5.69328 264.366 5.69254C264.023 5.68159 262.517 5.70347 260.326 5.74478C251.508 5.91101 231.149 6.40296 227.336 6.50932C209.771 6.99934 192.202 7.54277 174.634 8.182C184.174 7.70585 193.714 7.25771 203.255 6.82507C227.319 5.73379 240.098 5.25287 263.587 4.55146C269.09 4.3871 274.595 4.25362 280.101 4.12008C281.199 4.09347 282.296 4.06684 283.394 4.03998L289.054 3.92817C289.287 3.92356 289.41 3.92101 289.437 3.92022L289.448 3.91982C289.448 3.9198 289.457 3.91943 289.469 3.91858C289.478 3.91783 289.514 3.91351 289.541 3.90888C290.233 3.22756 290.015 1.18848 289.476 0.841688C289.451 0.838563 289.417 0.835953 289.408 0.835577L289.394 0.835213L289.384 0.835139L289.375 0.835185L289.336 0.83571L289.172 0.838464C288.876 0.843602 288.286 0.854425 287.578 0.86785C286.164 0.894677 284.276 0.931963 283.33 0.955106L281.19 0.997394C258.713 1.44141 236.237 1.90149 213.762 2.36157C208.788 2.46339 203.813 2.56521 198.839 2.66686ZM25.8729 19.7292C25.8617 19.7329 25.8592 19.733 25.8689 19.7303C25.8696 19.7301 25.8709 19.7297 25.8729 19.7292ZM50.4674 5.17392C50.4679 5.17368 50.4747 5.17598 50.4865 5.18157C50.4729 5.17695 50.467 5.17416 50.4674 5.17392Z" fill="#FD6263"/>
</svg>
