<svg width="145" height="11" viewBox="0 0 145 11" fill="none" xmlns="http://www.w3.org/2000/svg">
<path fill-rule="evenodd" clip-rule="evenodd" d="M10.2136 5.58973C11.2712 5.83687 12.5304 6.07572 13.913 6.30015C19.529 7.21176 27.0213 7.86268 30.7771 7.91891C57.8052 8.32358 84.7451 6.73436 111.719 3.95665C101.652 3.9564 91.5856 3.96473 81.5189 3.99767C59.4569 4.4329 34.6377 4.98262 16.2878 5.38905C14.2747 5.43364 12.3394 5.47651 10.4941 5.51731C10.4006 5.54124 10.3071 5.56538 10.2136 5.58973ZM136.525 3.9657C139.146 3.96661 141.768 3.96721 144.389 3.96721C144.726 3.96721 145 3.29147 145 2.4579C145 1.62433 144.726 0.948584 144.389 0.948584C142.568 0.948584 140.746 0.948296 138.924 0.947815C138.921 0.938983 138.918 0.930436 138.915 0.922177C138.841 0.728636 138.764 0.629877 138.73 0.58938C138.624 0.462741 138.513 0.430839 138.489 0.423803L138.486 0.422853C138.438 0.40802 138.384 0.397908 138.329 0.390268C138.218 0.37476 138.068 0.364849 137.879 0.359638C131.386 0.180758 124.893 0.264036 118.406 0.347234L117.442 0.359564C108.056 0.479028 95.3247 0.70661 81.5133 0.979066C76.6009 0.995147 71.6884 1.01709 66.776 1.04676C61.456 1.07889 55.9514 0.809619 50.3616 0.53618C37.0851 -0.113273 23.3286 -0.786212 10.4265 2.50006C6.76524 2.58101 3.45978 2.6538 0.605588 2.71576C0.268179 2.72308 -0.00294084 3.40474 2.40879e-05 4.23828C0.00298902 5.07181 0.278916 5.74159 0.616325 5.73427C2.30184 5.69768 4.14467 5.65731 6.12518 5.61372C6.12535 5.62454 6.12557 5.63542 6.12583 5.64634C6.13702 6.10971 6.22312 6.44844 6.29376 6.64973C6.41695 7.00077 6.57799 7.17943 6.66121 7.26439C6.85916 7.46648 7.13208 7.62678 7.43037 7.76552C8.64537 8.33063 11.0265 8.85673 13.8329 9.31228C19.4699 10.2273 26.9867 10.8808 30.7697 10.9375C63.5766 11.4287 96.2483 8.98474 129 5.04533C130.488 4.86629 133.461 4.46908 135.691 4.10605C135.983 4.05867 136.262 4.0117 136.525 3.9657ZM138.285 0.545385C138.284 0.545683 138.284 0.545994 138.283 0.546305C138.296 0.537668 138.298 0.538313 138.285 0.545385ZM7.10987 6.64957C7.10247 6.65968 7.09808 6.66423 7.09774 6.66397C7.0974 6.66371 7.1011 6.65866 7.10987 6.64957Z" fill="#FD6263"/>
</svg>
